<svg width="15" height="15" viewBox="0 0 15 15" fill="none" xmlns="http://www.w3.org/2000/svg">
<path d="M13.1556 0.0501709C13.3022 0.0501709 13.4629 0.0716484 13.6019 0.127319C13.6709 0.155009 13.7367 0.190884 13.7991 0.231812L13.9769 0.367554L13.9788 0.369507C14.0828 0.469506 14.1627 0.600602 14.2191 0.729858L14.263 0.833374C14.2991 0.938701 14.3118 1.04932 14.3118 1.16345C14.3118 1.30811 14.277 1.45191 14.22 1.58337C14.162 1.71709 14.0702 1.83818 13.9573 1.94666L8.57257 7.12048L9.56476 8.06384H9.56573L13.9573 12.2963L13.9583 12.2972C14.1636 12.5057 14.2788 12.781 14.2679 13.0687C14.2679 13.3567 14.1523 13.6224 13.9349 13.8314C13.7287 14.0295 13.4428 14.1508 13.1448 14.1508C12.8491 14.1508 12.5624 14.0517 12.3441 13.8529L12.3431 13.8519L6.14484 7.89392C6.04101 7.79412 5.96068 7.67293 5.90363 7.54138C5.84662 7.40988 5.81185 7.26616 5.81183 7.12146C5.81183 6.97658 5.84623 6.83276 5.90265 6.69177L5.90363 6.6908C5.96068 6.55924 6.04101 6.43807 6.14484 6.33826L12.3431 0.379272C12.4454 0.280933 12.5718 0.193507 12.7103 0.138062L12.7112 0.137085C12.8575 0.0830144 13.0059 0.0502023 13.1556 0.0501709Z" fill="#B3B3B3" stroke="#B3B3B3" stroke-width="0.1"/>
<path d="M1.20636 14.1504C1.0597 14.1504 0.899081 14.1289 0.760071 14.0732C0.691004 14.0456 0.625273 14.0097 0.562805 13.9687L0.385071 13.833L0.383118 13.8311C0.279099 13.7311 0.199244 13.6 0.142883 13.4707L0.0989381 13.3672C0.0628102 13.2619 0.0501099 13.1512 0.05011 13.0371C0.0501543 12.8925 0.0849176 12.7486 0.141907 12.6172C0.199936 12.4835 0.291769 12.3624 0.404602 12.2539L5.78937 7.08008L4.79718 6.13672L4.7962 6.13672L0.404603 1.9043L0.403627 1.90332C0.198297 1.69486 0.0831728 1.41957 0.0940563 1.13184C0.0940563 0.843905 0.209629 0.578128 0.427064 0.36914C0.633216 0.171108 0.919148 0.049804 1.2171 0.0498041C1.51284 0.0498047 1.79956 0.148852 2.01788 0.347656L2.01886 0.348632L8.2171 6.30664C8.32093 6.40644 8.40125 6.52763 8.45831 6.65918C8.51532 6.79068 8.55009 6.9344 8.55011 7.0791C8.55011 7.22398 8.51571 7.36781 8.45929 7.50879L8.45831 7.50977C8.40126 7.64132 8.32093 7.76249 8.2171 7.8623L2.01886 13.8213C1.91655 13.9196 1.79012 14.0071 1.65167 14.0625L1.6507 14.0635C1.50443 14.1175 1.35607 14.1504 1.20636 14.1504Z" fill="#B3B3B3" stroke="#B3B3B3" stroke-width="0.1"/>
</svg>
