<svg width="268" height="64" viewBox="0 0 268 64" fill="none" xmlns="http://www.w3.org/2000/svg">
<path fill-rule="evenodd" clip-rule="evenodd" d="M37.1988 4.94701C37.4719 2.50757 35.7424 0.304789 33.303 0.0317174C30.8635 -0.259559 28.6608 1.4881 28.3877 3.92754C28.06 6.71287 28.5151 10.0443 29.0977 13.4668C30.7179 13.9584 32.2835 14.6684 33.7399 15.5058C35.3055 11.8102 36.8347 8.15105 37.1988 4.94701ZM54.3295 15.6514C53.3646 13.394 50.7432 12.3746 48.4858 13.3394C45.5184 14.632 42.4418 17.1624 39.347 19.7657C40.5121 20.9126 41.6044 22.2051 42.5328 23.6069C46.0463 23.17 49.4142 22.6421 52.0175 21.5134C54.2749 20.5121 55.3126 17.8906 54.3295 15.6514ZM46.8473 3.74549C44.8812 2.28911 42.0959 2.68961 40.6395 4.65573C38.4185 7.64131 36.9257 12.1015 35.3055 16.4524C35.8516 16.8165 36.3614 17.1806 36.8529 17.5629C37.217 17.8542 37.5993 18.1637 37.9816 18.4732C41.6954 15.6696 45.5548 12.9389 47.7758 9.95332C49.2322 7.98721 48.8134 5.20187 46.8473 3.74549Z" fill="white"/>
<path d="M38.4004 39.3905C37.035 40.865 35.5786 42.2304 34.0312 43.5594C31.8649 45.4344 29.6621 47.2549 27.4229 49.0026C25.0199 47.528 23.2904 46.7816 22.9991 47.1639C22.7443 47.5098 23.7455 48.7841 25.5478 50.4408C19.5038 54.9373 13.1139 58.906 6.25073 62.1646C5.17665 62.6744 4.04795 63.0385 2.93746 63.439C2.64618 63.5482 2.3367 63.5482 2.20927 63.5664C0.461608 63.7667 -0.0663309 63.2933 0.00648821 61.6913C0.224946 56.7032 1.77235 52.0246 3.37437 47.3642C3.81129 46.0898 4.26641 44.8155 4.73973 43.5411C7.16097 45.0157 8.89042 45.7803 9.1817 45.398C9.49118 44.9793 8.0348 43.3045 5.59536 41.2109C7.34301 36.6961 9.29093 32.2542 11.5847 27.9943C16.1723 31.3986 20.2502 33.6377 20.7053 33.0188C21.1604 32.3998 17.7926 29.1048 13.1503 25.6641L12.9501 25.5184C13.7511 24.1531 14.5885 22.7877 15.4806 21.4587C16.591 19.7839 17.9564 18.2547 19.3036 16.7619C21.1058 14.7776 23.436 14.104 26.0393 14.6866C34.3771 16.5435 40.1662 21.3313 42.897 29.5417C43.4431 31.2165 42.9516 32.8549 42.0959 34.3659C41.5134 35.3854 40.8762 36.3503 40.1662 37.2605C35.7607 34.0383 31.9377 31.9629 31.5008 32.5455C31.082 33.128 34.1222 36.1318 38.4004 39.3905Z" fill="white"/>
<path d="M92.1045 9.7074C86.3335 9.7074 82.5834 12.0194 80.3078 16.4068H80.1803V13.676C80.1803 11.7099 78.5783 10.1261 76.6122 10.1261C74.6461 10.1261 73.0623 11.7099 73.0623 13.676V43.8778C73.0623 45.8439 74.6461 47.4459 76.6122 47.4459H76.9581C78.9242 47.4459 80.5262 45.8439 80.5262 43.8778V25.8914C80.5262 20.0113 83.8941 16.0973 89.5194 16.0973C94.9808 16.0973 97.6023 19.2649 97.6023 24.9266V43.8778C97.6023 45.8439 99.1861 47.4459 101.152 47.4459H101.498C103.464 47.4459 105.048 45.8439 105.048 43.8778V23.5248C105.048 14.9322 100.351 9.7074 92.1045 9.7074Z" fill="white"/>
<path d="M128.077 9.63452C117.646 9.63452 110.837 17.2441 110.837 28.9134C110.837 40.6009 117.573 47.8828 128.387 47.8828C135.086 47.8828 140.62 44.9154 143.114 40.2914C144.043 38.5983 142.768 36.5048 140.839 36.5048H138.945C137.999 36.5048 137.179 37.0509 136.688 37.8701C135.25 40.346 132.228 41.8388 128.532 41.8388C122.415 41.8388 118.356 37.5789 118.356 31.1162V30.6792H142.204C143.624 30.6792 144.789 29.5141 144.789 28.0942V28.0578C144.789 16.7526 138.326 9.63452 128.077 9.63452ZM118.392 25.3817C118.811 19.6472 122.688 15.7149 128.059 15.7149C133.484 15.7149 137.161 19.5743 137.325 25.3817H118.392Z" fill="white"/>
<path d="M179.506 34.9028H177.521C176.447 34.9028 175.519 35.5763 175.118 36.5776C173.826 39.8727 170.877 41.6385 166.689 41.6385C160.7 41.6385 156.659 36.8143 156.659 28.7859C156.659 20.9397 160.645 15.9334 166.653 15.9334C170.986 15.9334 173.88 18.0815 175.064 21.1399C175.464 22.1594 176.393 22.8694 177.503 22.8694H179.487C181.217 22.8694 182.509 21.1764 181.945 19.5379C180.034 13.9126 174.572 9.63452 166.58 9.63452C156.04 9.63452 149.085 17.1713 149.085 28.7859C149.085 40.6009 156.058 47.8828 166.653 47.8828C174.244 47.8828 179.888 44.169 181.963 38.2888C182.546 36.6322 181.271 34.9028 179.506 34.9028Z" fill="white"/>
<path d="M201.861 41.5839C201.734 41.5657 201.588 41.5475 201.461 41.5475C199.003 41.2562 197.856 39.727 197.856 36.8507V16.0062H202.061C203.7 16.0062 205.01 14.6772 205.01 13.057C205.01 11.4368 203.7 10.126 202.061 10.126H197.856V5.44742C197.856 4.42795 197.437 3.49951 196.764 2.82593C196.09 2.15235 195.18 1.73364 194.142 1.73364C192.103 1.73364 190.447 3.40848 190.447 5.44742V10.126H188.226C186.605 10.126 185.276 11.4368 185.276 13.057C185.276 14.6772 186.605 16.0062 188.226 16.0062H190.447V37.6153C190.447 44.8244 193.323 47.6825 200.787 47.6825C200.805 47.6825 200.823 47.6825 200.823 47.6825C201.679 47.6825 202.462 47.4276 203.117 46.9725C203.135 46.9725 203.154 46.9543 203.154 46.9543C203.918 46.4082 204.428 45.5161 204.428 44.5149C204.428 43.0221 203.317 41.766 201.861 41.5839Z" fill="white"/>
<path d="M226.073 9.63452C220.248 9.63452 215.442 12.0011 212.984 15.6603C212.584 16.2793 212.383 16.9528 212.383 17.6082C212.383 19.4287 213.84 21.1217 215.897 21.1217C217.098 21.1217 218.245 20.4846 218.81 19.4287C220.011 17.1713 222.578 15.7877 225.873 15.7877C230.861 15.7877 233.701 18.1362 233.701 22.3961V22.8512C233.701 24.2165 232.645 25.3452 231.28 25.4181L223.634 25.855C214.422 26.4375 209.38 30.2241 209.38 36.7596C209.38 43.4226 214.532 47.8099 221.996 47.8099C227.075 47.8099 231.717 45.2795 233.774 41.2198H233.938V43.8777C233.938 44.8608 234.338 45.7528 234.976 46.4082C235.631 47.0453 236.523 47.4459 237.506 47.4459C239.472 47.4459 241.056 45.8438 241.056 43.8777V21.8499C241.056 14.4588 235.176 9.63452 226.073 9.63452ZM233.701 33.4282C233.701 38.3253 229.514 41.8752 223.98 41.8752C219.684 41.8752 216.898 39.818 216.898 36.614C216.898 33.3189 219.556 31.4256 224.635 31.1162L233.701 30.4972V33.4282Z" fill="white"/>
<path d="M264.813 9.74377C260.408 9.74377 256.985 12.256 255.802 16.4067H255.674V13.676C255.674 11.7099 254.072 10.1261 252.125 10.1261C250.158 10.1261 248.556 11.7099 248.556 13.676V43.7139C248.556 44.7334 248.975 45.68 249.649 46.3536C250.322 47.0272 251.251 47.4459 252.288 47.4459C254.346 47.4459 256.02 45.771 256.02 43.7139V25.1814C256.02 19.9202 259.115 16.516 264.03 16.516C264.231 16.516 264.449 16.516 264.649 16.5342C266.179 16.5888 267.417 15.3326 267.417 13.8034V12.3653C267.417 10.9271 266.251 9.74377 264.813 9.74377Z" fill="white"/>
<path d="M204.428 44.5149C204.428 45.5161 203.918 46.4082 203.154 46.9543C203.154 46.9543 203.136 46.9725 203.117 46.9725C202.644 47.3002 202.08 47.4822 201.461 47.4822C199.804 47.4822 198.475 46.1533 198.475 44.5149C198.475 42.8764 199.804 41.5475 201.461 41.5475C201.588 41.5475 201.734 41.5657 201.861 41.5839C203.318 41.7659 204.428 43.0221 204.428 44.5149Z" fill="white"/>
</svg>
